<svg xmlns="http://www.w3.org/2000/svg" width="16" height="16" viewBox="0 0 16 16">
  <path fill="currentColor" d="M8.2 11.33q1.38 0 2.36-.97t.97-2.36q0-1.38-.97-2.36T8.2 4.67q-.37 0-.72.07t-.68.23q.9 0.42 1.43 1.24T8.75 8q0 0.98-.53 1.8t-1.43 1.23q.33.15.68.23t.72.07zM8 15.53 5.77 13.33H2.67V10.23L.47 8l2.2-2.23V2.67h3.1L8 .47l2.23 2.2h3.1v3.1l2.2 2.23-2.2 2.23v3.1h-3.1L8 15.53zm0-1.86 1.67-1.67h2.33v-2.33L13.67 8l-1.67-1.67V4h-2.33L8 2.33 6.33 4H4v2.33L2.33 8l1.67 1.67V12h2.33L8 13.67z" />
</svg>
